<svg xmlns="http://www.w3.org/2000/svg" viewBox="5 0 79 90">
    <path d="M13.677 17.774c-.782 0-1.44.274-1.77.811-.342.555-.289 1.269.074 1.991l8.776 15.193c.015.029.015.047 0 .074L6.966 60.181c-.36.717-.342 1.437 0 1.991.33.534.915.885 1.696.885h12.98c1.941 0 2.876-1.31 3.54-2.508 0 0 13.488-23.854 14.013-24.78-.053-.086-8.924-15.561-8.924-15.561-.646-1.151-1.623-2.434-3.614-2.434H13.677z"
          fill="rgb(65,150,158)"/>
    <path d="M68.208 0c-1.938 0-2.779 1.221-3.475 2.472 0 0-27.963 49.59-28.884 51.219.047.089 18.444 33.837 18.444 33.837C54.936 88.678 55.93 90 57.919 90h12.966c.782 0 1.392-.295 1.723-.829.345-.555.336-1.286-.027-2.006L54.281 53.732c-.018-.027-.018-.059 0-.085L83.02 2.832c.36-.717.369-1.449.027-2.003C82.717.295 82.103 0 81.321 0H68.208z"
          fill="rgb(191,221,100)"/>
</svg>
